<svg viewBox="0 0 160 160" fill="none" xmlns="http://www.w3.org/2000/svg">
<g opacity="0.6">
<path d="M32.6895 157.73C32.6895 134.504 51.5176 115.676 74.7433 115.676C97.969 115.676 116.797 134.504 116.797 157.73V159.832H32.6895V157.73Z" fill="#B4B4B4"/>
<path d="M40.0508 157.73C40.0508 134.504 58.8789 115.676 82.1047 115.676C105.33 115.676 124.159 134.504 124.159 157.73V159.832H40.0508V157.73Z" fill="#ABABAB"/>
<circle cx="71.5905" cy="64.1608" r="15.7702" fill="#575757"/>
<circle cx="56.8698" cy="74.6725" r="15.7702" fill="#575757"/>
<circle cx="94.7195" cy="69.4187" r="23.1296" fill="#575757"/>
<circle cx="104.18" cy="92.5476" r="23.1296" fill="#575757"/>
<circle cx="73.1671" cy="97.2804" r="31.0147" fill="#D9D9D9"/>
<circle cx="55.2919" cy="81.5067" r="1.57702" fill="#575757"/>
<circle cx="65.8075" cy="81.5067" r="1.57702" fill="#575757"/>
<circle cx="90.5124" cy="74.6725" r="15.7702" fill="#575757"/>
<circle cx="103.656" cy="89.918" r="11.0391" fill="#575757"/>
<rect x="49.5117" y="56.8008" width="28.3864" height="14.7189" rx="7.35943" fill="#ABABAB"/>
<circle cx="70.5386" cy="64.1636" r="6.30808" fill="#D9D9D9"/>
<path d="M56.8711 87.293H62.1278" stroke="#575757" stroke-width="2.10269" stroke-linecap="round"/>
<path d="M61.2471 105.354C64.6114 120.073 78.0686 127.608 84.3767 129.535C107.506 144.254 81.2229 167.384 61.2471 152.139C41.2713 136.895 41.2713 115.677 41.2715 105.354C41.2717 95.6614 57.0417 86.9558 61.2471 105.354Z" fill="#ABABAB"/>
<path d="M53.1841 108.748C55.2194 119.385 65.1441 132.16 68.9603 133.553C73.4547 136.969 90.5438 141.042 89.9872 144.592C89.2292 149.427 72.4102 153.879 67.1767 154.054C64.2896 154.15 56.1006 147.251 53.1841 144.592C41.0995 133.576 41.0995 116.208 41.0996 108.748C41.0997 101.744 50.64 95.4527 53.1841 108.748Z" fill="url(#paint0_linear_6413_15879)"/>
</g>
<defs>
<linearGradient id="paint0_linear_6413_15879" x1="56.8698" y1="146.169" x2="56.8698" y2="100.961" gradientUnits="userSpaceOnUse">
<stop stop-color="#ABABAB"/>
<stop offset="1" stop-color="#929292"/>
</linearGradient>
</defs>
</svg>
