<svg width="24" height="24" viewBox="0 0 24 24" fill="currentColor" xmlns="http://www.w3.org/2000/svg">
<path d="M5.11627 20.4998C4.61915 20.4998 4.19359 20.3228 3.83959 19.9688C3.48559 19.6148 3.30859 19.1892 3.30859 18.6921V5.30756C3.30859 4.81044 3.48559 4.38488 3.83959 4.03088C4.19359 3.67687 4.61915 3.49986 5.11627 3.49986H13.0586C13.2711 3.49986 13.4492 3.57177 13.5929 3.71558C13.7367 3.8594 13.8085 4.0376 13.8085 4.25018C13.8085 4.46278 13.7367 4.64088 13.5929 4.78446C13.4492 4.92804 13.2711 4.99983 13.0586 4.99983H5.11627C5.02652 4.99983 4.95279 5.02868 4.89509 5.08638C4.83739 5.14408 4.80854 5.21781 4.80854 5.30756V18.6921C4.80854 18.7819 4.83739 18.8556 4.89509 18.9133C4.95279 18.971 5.02652 18.9998 5.11627 18.9998H18.5008C18.5906 18.9998 18.6643 18.971 18.722 18.9133C18.7797 18.8556 18.8085 18.7819 18.8085 18.6921V10.7498C18.8085 10.5373 18.8805 10.3592 19.0243 10.2155C19.1681 10.0717 19.3463 9.99983 19.5589 9.99983C19.7715 9.99983 19.9495 10.0717 20.0931 10.2155C20.2367 10.3592 20.3085 10.5373 20.3085 10.7498V18.6921C20.3085 19.1892 20.1315 19.6148 19.7775 19.9688C19.4235 20.3228 18.9979 20.4998 18.5008 20.4998H5.11627ZM17.1932 6.61518H15.9432C15.7307 6.61518 15.5526 6.54328 15.4088 6.39948C15.2651 6.25567 15.1932 6.07747 15.1932 5.86488C15.1932 5.65228 15.2651 5.47419 15.4088 5.33061C15.5526 5.18703 15.7307 5.11523 15.9432 5.11523H17.1932V3.86521C17.1932 3.65271 17.2651 3.47458 17.4089 3.33083C17.5527 3.1871 17.7309 3.11523 17.9435 3.11523C18.1561 3.11523 18.3342 3.1871 18.4778 3.33083C18.6214 3.47458 18.6931 3.65271 18.6931 3.86521V5.11523H19.9432C20.1557 5.11523 20.3338 5.18713 20.4775 5.33093C20.6213 5.47475 20.6931 5.65295 20.6931 5.86553C20.6931 6.07813 20.6213 6.25623 20.4775 6.39981C20.3338 6.54339 20.1557 6.61518 19.9432 6.61518H18.6931V7.86521C18.6931 8.07771 18.6212 8.25583 18.4774 8.39958C18.3336 8.54332 18.1554 8.61518 17.9428 8.61518C17.7302 8.61518 17.5522 8.54332 17.4086 8.39958C17.265 8.25583 17.1932 8.07771 17.1932 7.86521V6.61518ZM11.0393 16.0191L9.40087 13.9191C9.30729 13.805 9.18838 13.7479 9.04414 13.7479C8.89991 13.7479 8.781 13.8082 8.68742 13.9287L7.11052 16.0267C6.99 16.1806 6.97414 16.3396 7.06292 16.5037C7.1517 16.6678 7.28488 16.7498 7.46244 16.7498H16.2316C16.4091 16.7498 16.5423 16.6678 16.6311 16.5037C16.7199 16.3396 16.7072 16.1806 16.5931 16.0267L14.2085 12.8326C14.1149 12.712 13.9944 12.6518 13.847 12.6518C13.6996 12.6518 13.5788 12.7129 13.4848 12.835L11.0393 16.0191Z" fill="currentColor"/>
</svg>
