<svg viewBox="0 0 40 40" fill="none" xmlns="http://www.w3.org/2000/svg">
<path d="M8.5272 34.1657C7.69867 34.1657 6.9894 33.8707 6.3994 33.2807C5.8094 32.6907 5.5144 31.9814 5.5144 31.1529V8.84528C5.5144 8.01675 5.8094 7.30749 6.3994 6.71749C6.9894 6.12746 7.69867 5.83245 8.5272 5.83245H21.7644C22.1185 5.83245 22.4154 5.95229 22.6549 6.19199C22.8945 6.43168 23.0143 6.72868 23.0143 7.08299C23.0143 7.43732 22.8945 7.73414 22.6549 7.97345C22.4154 8.21275 22.1185 8.3324 21.7644 8.3324H8.5272C8.37761 8.3324 8.25474 8.38049 8.15857 8.47665C8.0624 8.57282 8.01432 8.6957 8.01432 8.84528V31.1529C8.01432 31.3024 8.0624 31.4253 8.15857 31.5215C8.25474 31.6177 8.37761 31.6657 8.5272 31.6657H30.8348C30.9844 31.6657 31.1073 31.6177 31.2034 31.5215C31.2996 31.4253 31.3477 31.3024 31.3477 31.1529V17.9157C31.3477 17.5616 31.4675 17.2647 31.7072 17.0251C31.9469 16.7855 32.2439 16.6657 32.5982 16.6657C32.9525 16.6657 33.2493 16.7855 33.4886 17.0251C33.7279 17.2647 33.8476 17.5616 33.8476 17.9157V31.1529C33.8476 31.9814 33.5526 32.6907 32.9626 33.2807C32.3726 33.8707 31.6633 34.1657 30.8348 34.1657H8.5272ZM28.6554 11.0247H26.572C26.2179 11.0247 25.921 10.9048 25.6814 10.6652C25.4419 10.4255 25.3221 10.1285 25.3221 9.77415C25.3221 9.41982 25.4419 9.123 25.6814 8.8837C25.921 8.64439 26.2179 8.52474 26.572 8.52474H28.6554V6.44136C28.6554 6.0872 28.7753 5.79032 29.0149 5.55074C29.2546 5.31118 29.5516 5.19141 29.9059 5.19141C30.2603 5.19141 30.5571 5.31118 30.7964 5.55074C31.0357 5.79032 31.1553 6.0872 31.1553 6.44136V8.52474H33.2387C33.5929 8.52474 33.8897 8.64457 34.1293 8.88424C34.3689 9.12393 34.4887 9.42093 34.4887 9.77524C34.4887 10.1296 34.3689 10.4264 34.1293 10.6657C33.8897 10.905 33.5929 11.0247 33.2387 11.0247H31.1553V13.108C31.1553 13.4622 31.0355 13.7591 30.7958 13.9987C30.5561 14.2382 30.2591 14.358 29.9048 14.358C29.5505 14.358 29.2537 14.2382 29.0144 13.9987C28.7751 13.7591 28.6554 13.4622 28.6554 13.108V11.0247ZM18.3989 26.6978L15.6682 23.1978C15.5122 23.0077 15.314 22.9126 15.0737 22.9126C14.8333 22.9126 14.6351 23.013 14.4791 23.2139L11.8509 26.7106C11.6501 26.967 11.6236 27.2319 11.7716 27.5054C11.9196 27.7789 12.1415 27.9157 12.4375 27.9157H27.0527C27.3487 27.9157 27.5706 27.7789 27.7186 27.5054C27.8665 27.2319 27.8454 26.967 27.6553 26.7106L23.6809 21.3869C23.525 21.1861 23.3241 21.0857 23.0784 21.0857C22.8327 21.0857 22.6314 21.1875 22.4747 21.3911L18.3989 26.6978Z" fill="white"/>
</svg>
