<svg width="24" height="24" viewBox="0 0 24 24" fill="none" xmlns="http://www.w3.org/2000/svg">
<path d="M20.6407 12.2153C20.6407 11.6075 20.5819 10.98 20.4838 10.3918H11.9941V13.8622H16.8566C16.6605 14.9798 16.0135 15.9601 15.0528 16.5876L17.9546 18.8423C19.6603 17.2542 20.6407 14.9406 20.6407 12.2153Z" fill="#4280EF"/>
<path d="M11.9938 20.9996C14.425 20.9996 16.4641 20.1957 17.9542 18.8232L15.0524 16.5881C14.2486 17.1371 13.2094 17.4508 11.9938 17.4508C9.64101 17.4508 7.66074 15.8626 6.93529 13.7451L3.95508 16.0391C5.4844 19.0781 8.58225 20.9996 11.9938 20.9996Z" fill="#34A353"/>
<path d="M6.93604 13.726C6.56351 12.6084 6.56351 11.3928 6.93604 10.2753L3.95582 7.96167C2.68139 10.5105 2.68139 13.5104 3.95582 16.0396L6.93604 13.726Z" fill="#F6B704"/>
<path d="M11.9938 6.56875C13.2682 6.54915 14.5231 7.03931 15.4446 7.92161L18.0131 5.33353C16.3857 3.80422 14.229 2.98074 11.9938 3.00034C8.58225 3.00034 5.4844 4.9218 3.95508 7.96083L6.93529 10.2744C7.66074 8.13729 9.64101 6.56875 11.9938 6.56875Z" fill="#E54335"/>
</svg>
