<svg width="24" height="24" viewBox="0 0 24 24" fill="currentColor" xmlns="http://www.w3.org/2000/svg">
<g clip-path="url(#clip0_6413_13761)">
<path d="M18.1104 12.1898C19.9475 15.9252 20.7884 20.8424 21 24.0003H3C3.07171 21.3252 3.54406 17.3873 4.71191 13.9749L8 13.5374V15.5003C8.0002 16.3286 8.6717 17.0003 9.5 17.0003C10.3283 17.0003 10.9998 16.3286 11 15.5003V13.1371L13 12.8714V15.5003C13.0002 16.3286 13.6717 17.0003 14.5 17.0003C15.3283 17.0003 15.9998 16.3286 16 15.5003V12.471L18.1104 12.1898Z" fill="currentColor"/>
<path d="M10.7686 4.26596C14.8795 3.71829 17.3662 6.09598 18.5996 8.26694L22.1191 7.79819L22.3838 9.78061L19.4082 10.1761L19.4092 10.1771L4.54102 12.1576C4.35848 9.82783 5.34837 4.98807 10.7686 4.26596Z" fill="currentColor"/>
</g>
<defs>
<clipPath id="clip0_6413_13761">
<rect width="24" height="24" fill="white"/>
</clipPath>
</defs>
</svg>
