<svg width="24" height="24" viewBox="0 0 24 24" fill="none" xmlns="http://www.w3.org/2000/svg">
<path d="M11.9904 19.7096C11.7763 19.7096 11.5612 19.6711 11.3452 19.5942C11.1291 19.5173 10.9391 19.3968 10.775 19.2327L9.33848 17.9269C7.56539 16.3102 5.98238 14.7221 4.58943 13.1625C3.19648 11.6029 2.5 9.93203 2.5 8.15C2.5 6.73078 2.97852 5.54265 3.93558 4.5856C4.89263 3.62855 6.08076 3.15002 7.49998 3.15002C8.30638 3.15002 9.10285 3.33593 9.8894 3.70773C10.6759 4.07953 11.3795 4.68337 12 5.51927C12.6205 4.68337 13.324 4.07953 14.1105 3.70773C14.8971 3.33593 15.6936 3.15002 16.5 3.15002C17.9192 3.15002 19.1073 3.62855 20.0644 4.5856C21.0214 5.54265 21.5 6.73078 21.5 8.15C21.5 9.95127 20.7916 11.6407 19.375 13.2183C17.9583 14.7958 16.3788 16.3705 14.6365 17.9423L13.2154 19.2327C13.0513 19.3968 12.8596 19.5173 12.6404 19.5942C12.4211 19.6711 12.2045 19.7096 11.9904 19.7096Z" fill="#FD7E35"/>
</svg>
