<svg width="34" height="23" viewBox="0 0 34 23" fill="none" xmlns="http://www.w3.org/2000/svg">
<rect width="34" height="23" rx="11.5" fill="#EFF0F3"/>
<path d="M15.0422 13.756H13.8182V16H12.6663V13.756H8.32225V12.796L12.5823 7.12H13.8182V12.724H15.0422V13.756ZM12.6663 12.724V9.484C12.6663 9.22 12.6903 8.944 12.7263 8.632L9.75025 12.724H12.6663ZM24.1427 10.252H16.6907V6.46H24.0707V7.456H17.9147V9.256H24.1427V10.252ZM25.2707 11.152V12.172H15.4787V11.152H25.2707ZM20.3387 12.976C22.6667 12.976 24.0707 13.696 24.0707 14.944C24.0707 16.204 22.7267 16.924 20.3387 16.924C18.0227 16.924 16.6067 16.204 16.6067 14.944C16.6067 13.696 18.0227 12.976 20.3387 12.976ZM20.3387 15.964C21.9347 15.964 22.8227 15.616 22.8227 14.944C22.8227 14.272 21.9347 13.924 20.3387 13.924C18.7427 13.924 17.8667 14.272 17.8667 14.944C17.8667 15.616 18.7427 15.964 20.3387 15.964Z" fill="#6E727C"/>
</svg>
