<svg width="32" height="32" viewBox="0 0 32 32" fill="none" xmlns="http://www.w3.org/2000/svg">
<path d="M4 0H28V26L16 19.6585L4 26V0Z" fill="#FF9A00"/>
<path d="M8.20187 8.04L7.59187 7.3L9.59188 5.59H10.4919V12.04H11.8819V13H7.85187V12.04H9.39187V7.53C9.39187 7.37 9.39187 7.2 9.40188 7.03L8.20187 8.04ZM19.9189 8.21H13.7089V5.05H19.8589V5.88H14.7289V7.38H19.9189V8.21ZM20.8589 8.96V9.81H12.6989V8.96H20.8589ZM16.7489 10.48C18.6889 10.48 19.8589 11.08 19.8589 12.12C19.8589 13.17 18.7389 13.77 16.7489 13.77C14.8189 13.77 13.6389 13.17 13.6389 12.12C13.6389 11.08 14.8189 10.48 16.7489 10.48ZM16.7489 12.97C18.0789 12.97 18.8189 12.68 18.8189 12.12C18.8189 11.56 18.0789 11.27 16.7489 11.27C15.4189 11.27 14.6889 11.56 14.6889 12.12C14.6889 12.68 15.4189 12.97 16.7489 12.97Z" fill="#FFFCF2"/>
</svg>
