<svg width="27" height="21" viewBox="0 0 27 21" fill="none" xmlns="http://www.w3.org/2000/svg">
<rect width="27" height="21" rx="10.5" fill="#E6E8FA"/>
<path d="M7.55187 11.74C7.64187 12.5 8.35187 13.15 9.11188 13.15C9.86187 13.15 10.5219 12.65 10.5219 11.88C10.5219 10.75 9.63187 10.62 8.73187 10.62V9.82C9.56187 9.82 10.3919 9.6 10.3919 8.62C10.3919 7.91 9.94188 7.47 9.21187 7.47C8.45187 7.47 7.83187 8.05 7.89187 8.84L6.80187 8.65C6.99187 7.34 7.90187 6.53 9.27188 6.53C10.3919 6.53 11.4619 7.18 11.4619 8.43C11.4619 9.28 11.0919 9.84 10.2419 10.11C11.1219 10.36 11.6219 10.92 11.6219 11.85C11.6219 13.26 10.4919 14.09 9.12187 14.09C7.77187 14.09 6.98187 13.48 6.58187 12.14L7.55187 11.74ZM19.4189 9.21H13.2089V6.05H19.3589V6.88H14.2289V8.38H19.4189V9.21ZM20.3589 9.96V10.81H12.1989V9.96H20.3589ZM16.2489 11.48C18.1889 11.48 19.3589 12.08 19.3589 13.12C19.3589 14.17 18.2389 14.77 16.2489 14.77C14.3189 14.77 13.1389 14.17 13.1389 13.12C13.1389 12.08 14.3189 11.48 16.2489 11.48ZM16.2489 13.97C17.5789 13.97 18.3189 13.68 18.3189 13.12C18.3189 12.56 17.5789 12.27 16.2489 12.27C14.9189 12.27 14.1889 12.56 14.1889 13.12C14.1889 13.68 14.9189 13.97 16.2489 13.97Z" fill="#6B79FA"/>
</svg>
