<svg width="34" height="27" viewBox="0 0 34 27" fill="none" xmlns="http://www.w3.org/2000/svg">
<rect width="34" height="27" rx="13.5" fill="#E6FAF3"/>
<path d="M14.6703 18H8.67025V17.232L11.6582 14.232C12.0662 13.824 12.4503 13.416 12.7622 12.924C13.3623 11.844 13.4343 10.164 11.7303 10.164C10.7822 10.164 10.0742 10.86 10.1462 11.808L8.82625 11.568C9.05425 9.984 10.1582 9.036 11.8023 9.036C13.2902 9.036 14.5143 9.924 14.5143 11.532C14.5143 12.876 13.5903 13.824 12.7023 14.712L10.4462 16.992C10.8182 16.896 11.2142 16.824 11.5982 16.824H14.6703V18ZM24.1427 12.252H16.6907V8.46H24.0707V9.456H17.9147V11.256H24.1427V12.252ZM25.2707 13.152V14.172H15.4787V13.152H25.2707ZM20.3387 14.976C22.6667 14.976 24.0707 15.696 24.0707 16.944C24.0707 18.204 22.7267 18.924 20.3387 18.924C18.0227 18.924 16.6067 18.204 16.6067 16.944C16.6067 15.696 18.0227 14.976 20.3387 14.976ZM20.3387 17.964C21.9347 17.964 22.8227 17.616 22.8227 16.944C22.8227 16.272 21.9347 15.924 20.3387 15.924C18.7427 15.924 17.8667 16.272 17.8667 16.944C17.8667 17.616 18.7427 17.964 20.3387 17.964Z" fill="#05D58B"/>
</svg>
