<svg width="27" height="21" viewBox="0 0 27 21" fill="none" xmlns="http://www.w3.org/2000/svg">
<rect width="27" height="21" rx="10.5" fill="#E6FAF3"/>
<path d="M11.5919 14H6.59187V13.36L9.08187 10.86C9.42187 10.52 9.74187 10.18 10.0019 9.77C10.5019 8.87 10.5619 7.47 9.14187 7.47C8.35187 7.47 7.76187 8.05 7.82187 8.84L6.72187 8.64C6.91187 7.32 7.83187 6.53 9.20188 6.53C10.4419 6.53 11.4619 7.27 11.4619 8.61C11.4619 9.73 10.6919 10.52 9.95187 11.26L8.07187 13.16C8.38187 13.08 8.71187 13.02 9.03187 13.02H11.5919V14ZM19.4189 9.21H13.2089V6.05H19.3589V6.88H14.2289V8.38H19.4189V9.21ZM20.3589 9.96V10.81H12.1989V9.96H20.3589ZM16.2489 11.48C18.1889 11.48 19.3589 12.08 19.3589 13.12C19.3589 14.17 18.2389 14.77 16.2489 14.77C14.3189 14.77 13.1389 14.17 13.1389 13.12C13.1389 12.08 14.3189 11.48 16.2489 11.48ZM16.2489 13.97C17.5789 13.97 18.3189 13.68 18.3189 13.12C18.3189 12.56 17.5789 12.27 16.2489 12.27C14.9189 12.27 14.1889 12.56 14.1889 13.12C14.1889 13.68 14.9189 13.97 16.2489 13.97Z" fill="#05D58B"/>
</svg>
