<svg width="45" height="45" viewBox="0 0 45 45" fill="none" xmlns="http://www.w3.org/2000/svg">
<path d="M5 2H39V43L22 33L5 43V2Z" fill="#FF9A00"/>
<path d="M15.0022 14.548L14.2702 13.66L16.6703 11.608H17.7503V19.348H19.4183V20.5H14.5822V19.348H16.4302V13.936C16.4302 13.744 16.4302 13.54 16.4423 13.336L15.0022 14.548ZM29.1427 14.752H21.6907V10.96H29.0707V11.956H22.9147V13.756H29.1427V14.752ZM30.2707 15.652V16.672H20.4787V15.652H30.2707ZM25.3387 17.476C27.6667 17.476 29.0707 18.196 29.0707 19.444C29.0707 20.704 27.7267 21.424 25.3387 21.424C23.0227 21.424 21.6067 20.704 21.6067 19.444C21.6067 18.196 23.0227 17.476 25.3387 17.476ZM25.3387 20.464C26.9347 20.464 27.8227 20.116 27.8227 19.444C27.8227 18.772 26.9347 18.424 25.3387 18.424C23.7427 18.424 22.8667 18.772 22.8667 19.444C22.8667 20.116 23.7427 20.464 25.3387 20.464Z" fill="#FFFCF2"/>
</svg>
