<svg width="34" height="27" viewBox="0 0 34 27" fill="none" xmlns="http://www.w3.org/2000/svg">
<rect width="34" height="27" rx="13.5" fill="#E6E8FA"/>
<path d="M9.82225 15.288C9.93025 16.2 10.7822 16.98 11.6943 16.98C12.5942 16.98 13.3863 16.38 13.3863 15.456C13.3863 14.1 12.3182 13.944 11.2382 13.944V12.984C12.2342 12.984 13.2303 12.72 13.2303 11.544C13.2303 10.692 12.6903 10.164 11.8142 10.164C10.9022 10.164 10.1582 10.86 10.2302 11.808L8.92225 11.58C9.15025 10.008 10.2422 9.036 11.8863 9.036C13.2303 9.036 14.5143 9.816 14.5143 11.316C14.5143 12.336 14.0702 13.008 13.0503 13.332C14.1062 13.632 14.7062 14.304 14.7062 15.42C14.7062 17.112 13.3502 18.108 11.7062 18.108C10.0862 18.108 9.13825 17.376 8.65825 15.768L9.82225 15.288ZM24.1427 12.252H16.6907V8.46H24.0707V9.456H17.9147V11.256H24.1427V12.252ZM25.2707 13.152V14.172H15.4787V13.152H25.2707ZM20.3387 14.976C22.6667 14.976 24.0707 15.696 24.0707 16.944C24.0707 18.204 22.7267 18.924 20.3387 18.924C18.0227 18.924 16.6067 18.204 16.6067 16.944C16.6067 15.696 18.0227 14.976 20.3387 14.976ZM20.3387 17.964C21.9347 17.964 22.8227 17.616 22.8227 16.944C22.8227 16.272 21.9347 15.924 20.3387 15.924C18.7427 15.924 17.8667 16.272 17.8667 16.944C17.8667 17.616 18.7427 17.964 20.3387 17.964Z" fill="#6B79FA"/>
</svg>
