<svg width="28" height="28" viewBox="0 0 28 28" fill="none" xmlns="http://www.w3.org/2000/svg">
<path d="M24.5 7.875H22.75V7C22.75 6.30381 22.4734 5.63613 21.9812 5.14384C21.4889 4.65156 20.8212 4.375 20.125 4.375H4.375C3.67881 4.375 3.01113 4.65156 2.51884 5.14384C2.02656 5.63613 1.75 6.30381 1.75 7V17.5C1.75 18.1962 2.02656 18.8639 2.51884 19.3562C3.01113 19.8484 3.67881 20.125 4.375 20.125H16.625V21C16.625 21.6962 16.9016 22.3639 17.3938 22.8562C17.8861 23.3484 18.5538 23.625 19.25 23.625H24.5C25.1962 23.625 25.8639 23.3484 26.3562 22.8562C26.8484 22.3639 27.125 21.6962 27.125 21V10.5C27.125 9.80381 26.8484 9.13613 26.3562 8.64384C25.8639 8.15156 25.1962 7.875 24.5 7.875ZM25.375 21C25.375 21.2321 25.2828 21.4546 25.1187 21.6187C24.9546 21.7828 24.7321 21.875 24.5 21.875H19.25C19.0179 21.875 18.7954 21.7828 18.6313 21.6187C18.4672 21.4546 18.375 21.2321 18.375 21V10.5C18.375 10.2679 18.4672 10.0454 18.6313 9.88128C18.7954 9.71719 19.0179 9.625 19.25 9.625H24.5C24.7321 9.625 24.9546 9.71719 25.1187 9.88128C25.2828 10.0454 25.375 10.2679 25.375 10.5V21ZM14.875 22.75C14.875 22.9821 14.7828 23.2046 14.6187 23.3687C14.4546 23.5328 14.2321 23.625 14 23.625H9.625C9.39294 23.625 9.17038 23.5328 9.00628 23.3687C8.84219 23.2046 8.75 22.9821 8.75 22.75C8.75 22.5179 8.84219 22.2954 9.00628 22.1313C9.17038 21.9672 9.39294 21.875 9.625 21.875H14C14.2321 21.875 14.4546 21.9672 14.6187 22.1313C14.7828 22.2954 14.875 22.5179 14.875 22.75ZM23.625 12.25C23.625 12.4821 23.5328 12.7046 23.3687 12.8687C23.2046 13.0328 22.9821 13.125 22.75 13.125H21C20.7679 13.125 20.5454 13.0328 20.3813 12.8687C20.2172 12.7046 20.125 12.4821 20.125 12.25C20.125 12.0179 20.2172 11.7954 20.3813 11.6313C20.5454 11.4672 20.7679 11.375 21 11.375H22.75C22.9821 11.375 23.2046 11.4672 23.3687 11.6313C23.5328 11.7954 23.625 12.0179 23.625 12.25Z" fill="#2F323A"/>
</svg>
