<svg width="28" height="28" viewBox="0 0 28 28" fill="none" xmlns="http://www.w3.org/2000/svg">
<path d="M24.5 11.375H23.5845C23.3647 8.98504 22.2598 6.76342 20.4867 5.14591C18.7136 3.52841 16.4001 2.63171 14 2.63171C11.5999 2.63171 9.28645 3.52841 7.51331 5.14591C5.74017 6.76342 4.63533 8.98504 4.41547 11.375H3.5C3.26794 11.375 3.04538 11.4672 2.88128 11.6313C2.71719 11.7954 2.625 12.018 2.625 12.25C2.62884 14.3309 3.20151 16.3711 4.28106 18.1501C5.36061 19.929 6.90596 21.379 8.75 22.3431V22.75C8.75 23.2141 8.93437 23.6593 9.26256 23.9875C9.59075 24.3156 10.0359 24.5 10.5 24.5H17.5C17.9641 24.5 18.4092 24.3156 18.7374 23.9875C19.0656 23.6593 19.25 23.2141 19.25 22.75V22.3431C21.094 21.379 22.6394 19.929 23.7189 18.1501C24.7985 16.3711 25.3712 14.3309 25.375 12.25C25.375 12.018 25.2828 11.7954 25.1187 11.6313C24.9546 11.4672 24.7321 11.375 24.5 11.375ZM18.9744 6.15018C19.1749 6.31424 19.367 6.48742 19.5508 6.66971C17.2215 7.48909 15.2966 9.17308 14.175 11.3728H10.9484C11.4953 9.83986 12.5021 8.51312 13.8314 7.57385C15.1606 6.63458 16.7474 6.1286 18.375 6.12502C18.5752 6.12502 18.7753 6.13486 18.9744 6.15018ZM16.2006 11.375C17.2615 9.78349 18.8664 8.63355 20.7145 8.1408C21.3188 9.1237 21.6979 10.2282 21.8247 11.375H16.2006ZM14 4.37502C14.7022 4.37548 15.4011 4.47002 16.0781 4.65611C14.4292 5.06515 12.9173 5.90161 11.6947 7.0812C10.4721 8.26079 9.58202 9.74182 9.11422 11.375H6.17531C6.39236 9.45096 7.30988 7.67406 8.75296 6.38308C10.196 5.0921 12.0637 4.37732 14 4.37502Z" fill="#2F323A"/>
</svg>
