<svg width="28" height="28" viewBox="0 0 28 28" fill="none" xmlns="http://www.w3.org/2000/svg">
<path d="M25.375 5.25H18.375C17.4467 5.25 16.5565 5.61875 15.9001 6.27513C15.2437 6.9315 14.875 7.82174 14.875 8.75V18.3455C14.878 18.5713 14.7955 18.7899 14.6439 18.9573C14.4923 19.1247 14.283 19.2285 14.058 19.2478C13.9383 19.2558 13.8182 19.239 13.7053 19.1986C13.5923 19.1582 13.4889 19.095 13.4014 19.013C13.3139 18.9309 13.2442 18.8317 13.1967 18.7216C13.1491 18.6115 13.1247 18.4928 13.125 18.3728V8.75C13.125 7.82174 12.7563 6.9315 12.0999 6.27513C11.4435 5.61875 10.5533 5.25 9.625 5.25H2.625C2.39294 5.25 2.17038 5.34219 2.00628 5.50628C1.84219 5.67038 1.75 5.89294 1.75 6.125V21.875C1.75 22.1071 1.84219 22.3296 2.00628 22.4937C2.17038 22.6578 2.39294 22.75 2.625 22.75H10.5C11.1951 22.75 11.8617 23.0257 12.3538 23.5165C12.8459 24.0074 13.1233 24.6734 13.125 25.3684C13.1215 25.5471 13.1735 25.7224 13.2738 25.8703C13.3741 26.0182 13.5177 26.1314 13.685 26.1942C13.8178 26.2455 13.9611 26.2635 14.1024 26.2469C14.2438 26.2302 14.3789 26.1793 14.4962 26.0986C14.6134 26.0179 14.7092 25.9098 14.7752 25.7837C14.8412 25.6576 14.8755 25.5173 14.875 25.375C14.875 24.6788 15.1516 24.0111 15.6438 23.5188C16.1361 23.0266 16.8038 22.75 17.5 22.75H25.375C25.6071 22.75 25.8296 22.6578 25.9937 22.4937C26.1578 22.3296 26.25 22.1071 26.25 21.875V6.125C26.25 5.89294 26.1578 5.67038 25.9937 5.50628C25.8296 5.34219 25.6071 5.25 25.375 5.25ZM22.75 18.375H18.4045C18.1787 18.378 17.9601 18.2955 17.7927 18.1439C17.6253 17.9923 17.5215 17.783 17.5022 17.558C17.4942 17.4383 17.511 17.3182 17.5514 17.2053C17.5918 17.0924 17.655 16.9889 17.737 16.9014C17.8191 16.8139 17.9183 16.7442 18.0284 16.6967C18.1385 16.6491 18.2572 16.6247 18.3772 16.625H22.7227C22.9485 16.622 23.1671 16.7045 23.3345 16.8561C23.5019 17.0077 23.6057 17.217 23.625 17.442C23.6329 17.5617 23.6162 17.6818 23.5758 17.7947C23.5354 17.9077 23.4722 18.0111 23.3902 18.0986C23.3081 18.1861 23.2089 18.2558 23.0988 18.3033C22.9887 18.3509 22.87 18.3753 22.75 18.375ZM22.75 14.875H18.4045C18.1787 14.878 17.9601 14.7955 17.7927 14.6439C17.6253 14.4923 17.5215 14.283 17.5022 14.058C17.4942 13.9383 17.511 13.8182 17.5514 13.7053C17.5918 13.5924 17.655 13.4889 17.737 13.4014C17.8191 13.3139 17.9183 13.2442 18.0284 13.1967C18.1385 13.1491 18.2572 13.1247 18.3772 13.125H22.7227C22.9485 13.122 23.1671 13.2045 23.3345 13.3561C23.5019 13.5077 23.6057 13.717 23.625 13.942C23.6329 14.0617 23.6162 14.1818 23.5758 14.2947C23.5354 14.4077 23.4722 14.5111 23.3902 14.5986C23.3081 14.6861 23.2089 14.7558 23.0988 14.8033C22.9887 14.8509 22.87 14.8753 22.75 14.875ZM22.75 11.375H18.4045C18.1783 11.3786 17.9592 11.2963 17.7913 11.1446C17.6235 10.993 17.5194 10.7834 17.5 10.558C17.4921 10.4383 17.5088 10.3182 17.5492 10.2053C17.5896 10.0924 17.6528 9.98892 17.7348 9.90143C17.8169 9.81393 17.9161 9.74424 18.0262 9.69669C18.1363 9.64914 18.255 9.62474 18.375 9.625H22.7205C22.9467 9.6214 23.1658 9.70372 23.3337 9.85536C23.5015 10.007 23.6056 10.2166 23.625 10.442C23.6329 10.5617 23.6162 10.6818 23.5758 10.7947C23.5354 10.9077 23.4722 11.0111 23.3902 11.0986C23.3081 11.1861 23.2089 11.2558 23.0988 11.3033C22.9887 11.3509 22.87 11.3753 22.75 11.375Z" fill="#2F323A"/>
</svg>
