<svg viewBox="0 0 28 28" fill="none" xmlns="http://www.w3.org/2000/svg">
<g clip-path="url(#clip0_6413_13908)">
<path d="M25.0086 14.1215L21.9395 13.0988C21.8464 13.0664 21.745 13.0664 21.6519 13.0988L16.9236 14.8182C16.8281 14.8541 16.7271 14.8733 16.625 14.875C16.4334 14.8749 16.2472 14.812 16.0948 14.6958C15.9425 14.5796 15.8325 14.4167 15.7817 14.2319C15.7265 14.0153 15.7545 13.7858 15.8602 13.5888C15.9659 13.3917 16.1416 13.2415 16.3527 13.1677L18.375 12.4327C18.4293 12.4131 18.4762 12.3771 18.5091 12.3296C18.542 12.2822 18.5593 12.2256 18.5586 12.1679C18.5579 12.1101 18.5392 12.054 18.5051 12.0074C18.471 11.9608 18.4232 11.9259 18.3684 11.9077C18.0099 11.788 17.6815 11.5921 17.4059 11.3335C17.3471 11.2755 17.273 11.2354 17.1923 11.2178C17.1116 11.2002 17.0275 11.2058 16.9498 11.234L14.3008 12.1965C14.1873 12.2376 14.0666 12.2549 13.9461 12.2471C13.8257 12.2394 13.7082 12.2068 13.6009 12.1514C13.4937 12.0961 13.399 12.0191 13.323 11.9254C13.2469 11.8317 13.191 11.7233 13.1589 11.6069C13.1037 11.3903 13.1317 11.1608 13.2374 10.9638C13.3431 10.7667 13.5188 10.6165 13.7298 10.5427L15.9688 9.72676C16.0248 9.70643 16.076 9.67488 16.1194 9.63403C16.1628 9.59318 16.1974 9.5439 16.221 9.48921C16.2447 9.43453 16.2569 9.37558 16.257 9.316C16.257 9.25641 16.2449 9.19744 16.2214 9.1427L15.8867 8.35958C15.8428 8.25654 15.7611 8.17426 15.6583 8.1297C15.5555 8.08513 15.4396 8.08168 15.3344 8.12004L12.5453 9.13395C12.4319 9.17512 12.3111 9.19237 12.1907 9.18462C12.0702 9.17687 11.9527 9.14429 11.8454 9.08892C11.7382 9.03355 11.6436 8.9566 11.5675 8.86289C11.4914 8.76919 11.4356 8.66076 11.4034 8.54442C11.3482 8.32777 11.3762 8.09828 11.4819 7.90126C11.5876 7.70424 11.7633 7.554 11.9744 7.4802L14.5994 6.52536C14.6552 6.50501 14.7064 6.4735 14.7497 6.43273C14.793 6.39195 14.8275 6.34279 14.8511 6.28823C14.8748 6.23367 14.887 6.17486 14.8872 6.1154C14.8874 6.05594 14.8754 5.99707 14.852 5.94239L14.2614 4.55004C14.2614 4.55004 14.2614 4.54239 14.2614 4.53911C14.0806 4.13364 13.7525 3.81204 13.3435 3.63942C12.9345 3.4668 12.4752 3.45608 12.0586 3.60942L3.77672 6.61614C3.43955 6.73963 3.14836 6.96355 2.94242 7.2577C2.73648 7.55184 2.62569 7.90207 2.625 8.26114V21C2.625 21.4642 2.80937 21.9093 3.13756 22.2375C3.46575 22.5657 3.91087 22.75 4.375 22.75H26.25C26.7141 22.75 27.1592 22.5657 27.4874 22.2375C27.8156 21.9093 28 21.4642 28 21V18.2722C28.0001 17.354 27.7112 16.4589 27.1743 15.714C26.6374 14.969 25.8797 14.4119 25.0086 14.1215ZM26.25 21H4.375V19.25H26.25V21Z" fill="#2F323A"/>
</g>
<defs>
<clipPath id="clip0_6413_13908">
<rect width="28" height="28" fill="white"/>
</clipPath>
</defs>
</svg>
