<svg width="28" height="28" viewBox="0 0 28 28" fill="none" xmlns="http://www.w3.org/2000/svg">
<path d="M1.75 10.9375V7.875C1.75 7.41087 1.93437 6.96575 2.26256 6.63756C2.59075 6.30937 3.03587 6.125 3.5 6.125H12.6875C12.8035 6.125 12.9148 6.17109 12.9969 6.25314C13.0789 6.33519 13.125 6.44647 13.125 6.5625V14.875H7C7 13.9467 6.63125 13.0565 5.97487 12.4001C5.3185 11.7437 4.42826 11.375 3.5 11.375H2.1875C2.07147 11.375 1.96019 11.3289 1.87814 11.2469C1.79609 11.1648 1.75 11.0535 1.75 10.9375ZM24.5 11.375H25.8125C25.9285 11.375 26.0398 11.3289 26.1219 11.2469C26.2039 11.1648 26.25 11.0535 26.25 10.9375V7.875C26.25 7.41087 26.0656 6.96575 25.7374 6.63756C25.4092 6.30937 24.9641 6.125 24.5 6.125H15.3125C15.1965 6.125 15.0852 6.17109 15.0031 6.25314C14.9211 6.33519 14.875 6.44647 14.875 6.5625V14.875H21C21 13.9467 21.3687 13.0565 22.0251 12.4001C22.6815 11.7437 23.5717 11.375 24.5 11.375ZM25.375 13.125H24.5C24.0359 13.125 23.5908 13.3094 23.2626 13.6376C22.9344 13.9658 22.75 14.4109 22.75 14.875V15.75C22.75 15.9821 22.6578 16.2046 22.4937 16.3687C22.3296 16.5328 22.1071 16.625 21.875 16.625H6.125C5.89294 16.625 5.67038 16.5328 5.50628 16.3687C5.34219 16.2046 5.25 15.9821 5.25 15.75V14.875C5.25 14.4109 5.06563 13.9658 4.73744 13.6376C4.40925 13.3094 3.96413 13.125 3.5 13.125H2.625C2.16087 13.125 1.71575 13.3094 1.38756 13.6376C1.05937 13.9658 0.875 14.4109 0.875 14.875V18.375C0.875 18.8391 1.05937 19.2842 1.38756 19.6124C1.71575 19.9406 2.16087 20.125 2.625 20.125H3.5V21.8455C3.49666 22.0716 3.57907 22.2906 3.73065 22.4584C3.88223 22.6262 4.09174 22.7304 4.31703 22.75C4.43672 22.7579 4.55676 22.7412 4.66971 22.7008C4.78265 22.6604 4.88608 22.5972 4.97358 22.5152C5.06107 22.4331 5.13076 22.3339 5.17831 22.2238C5.22586 22.1137 5.25026 21.995 5.25 21.875V20.125H22.75V21.8455C22.747 22.0713 22.8295 22.2899 22.9811 22.4573C23.1327 22.6247 23.342 22.7285 23.567 22.7478C23.6867 22.7558 23.8068 22.739 23.9197 22.6986C24.0327 22.6582 24.1361 22.595 24.2236 22.513C24.3111 22.4309 24.3808 22.3317 24.4283 22.2216C24.4759 22.1115 24.5003 21.9928 24.5 21.8728V20.125H25.375C25.8391 20.125 26.2842 19.9406 26.6124 19.6124C26.9406 19.2842 27.125 18.8391 27.125 18.375V14.875C27.125 14.4109 26.9406 13.9658 26.6124 13.6376C26.2842 13.3094 25.8391 13.125 25.375 13.125Z" fill="#2F323A"/>
</svg>
