<svg width="28" height="28" viewBox="0 0 28 28" fill="none" xmlns="http://www.w3.org/2000/svg">
<path d="M25.375 24.5H22.75V3.5H23.625C23.8571 3.5 24.0796 3.40781 24.2437 3.24372C24.4078 3.07962 24.5 2.85706 24.5 2.625C24.5 2.39294 24.4078 2.17038 24.2437 2.00628C24.0796 1.84219 23.8571 1.75 23.625 1.75H4.375C4.14294 1.75 3.92038 1.84219 3.75628 2.00628C3.59219 2.17038 3.5 2.39294 3.5 2.625C3.5 2.85706 3.59219 3.07962 3.75628 3.24372C3.92038 3.40781 4.14294 3.5 4.375 3.5H5.25V24.5H2.625C2.39294 24.5 2.17038 24.5922 2.00628 24.7563C1.84219 24.9204 1.75 25.1429 1.75 25.375C1.75 25.6071 1.84219 25.8296 2.00628 25.9937C2.17038 26.1578 2.39294 26.25 2.625 26.25H25.375C25.6071 26.25 25.8296 26.1578 25.9937 25.9937C26.1578 25.8296 26.25 25.6071 26.25 25.375C26.25 25.1429 26.1578 24.9204 25.9937 24.7563C25.8296 24.5922 25.6071 24.5 25.375 24.5ZM9.625 6.125H12.25C12.4821 6.125 12.7046 6.21719 12.8687 6.38128C13.0328 6.54538 13.125 6.76794 13.125 7C13.125 7.23206 13.0328 7.45462 12.8687 7.61872C12.7046 7.78281 12.4821 7.875 12.25 7.875H9.625C9.39294 7.875 9.17038 7.78281 9.00628 7.61872C8.84219 7.45462 8.75 7.23206 8.75 7C8.75 6.76794 8.84219 6.54538 9.00628 6.38128C9.17038 6.21719 9.39294 6.125 9.625 6.125ZM9.625 10.5H12.25C12.4821 10.5 12.7046 10.5922 12.8687 10.7563C13.0328 10.9204 13.125 11.1429 13.125 11.375C13.125 11.6071 13.0328 11.8296 12.8687 11.9937C12.7046 12.1578 12.4821 12.25 12.25 12.25H9.625C9.39294 12.25 9.17038 12.1578 9.00628 11.9937C8.84219 11.8296 8.75 11.6071 8.75 11.375C8.75 11.1429 8.84219 10.9204 9.00628 10.7563C9.17038 10.5922 9.39294 10.5 9.625 10.5ZM8.75 15.75C8.75 15.5179 8.84219 15.2954 9.00628 15.1313C9.17038 14.9672 9.39294 14.875 9.625 14.875H12.25C12.4821 14.875 12.7046 14.9672 12.8687 15.1313C13.0328 15.2954 13.125 15.5179 13.125 15.75C13.125 15.9821 13.0328 16.2046 12.8687 16.3687C12.7046 16.5328 12.4821 16.625 12.25 16.625H9.625C9.39294 16.625 9.17038 16.5328 9.00628 16.3687C8.84219 16.2046 8.75 15.9821 8.75 15.75ZM16.625 24.5H11.375V20.125H16.625V24.5ZM18.375 16.625H15.75C15.5179 16.625 15.2954 16.5328 15.1313 16.3687C14.9672 16.2046 14.875 15.9821 14.875 15.75C14.875 15.5179 14.9672 15.2954 15.1313 15.1313C15.2954 14.9672 15.5179 14.875 15.75 14.875H18.375C18.6071 14.875 18.8296 14.9672 18.9937 15.1313C19.1578 15.2954 19.25 15.5179 19.25 15.75C19.25 15.9821 19.1578 16.2046 18.9937 16.3687C18.8296 16.5328 18.6071 16.625 18.375 16.625ZM18.375 12.25H15.75C15.5179 12.25 15.2954 12.1578 15.1313 11.9937C14.9672 11.8296 14.875 11.6071 14.875 11.375C14.875 11.1429 14.9672 10.9204 15.1313 10.7563C15.2954 10.5922 15.5179 10.5 15.75 10.5H18.375C18.6071 10.5 18.8296 10.5922 18.9937 10.7563C19.1578 10.9204 19.25 11.1429 19.25 11.375C19.25 11.6071 19.1578 11.8296 18.9937 11.9937C18.8296 12.1578 18.6071 12.25 18.375 12.25ZM18.375 7.875H15.75C15.5179 7.875 15.2954 7.78281 15.1313 7.61872C14.9672 7.45462 14.875 7.23206 14.875 7C14.875 6.76794 14.9672 6.54538 15.1313 6.38128C15.2954 6.21719 15.5179 6.125 15.75 6.125H18.375C18.6071 6.125 18.8296 6.21719 18.9937 6.38128C19.1578 6.54538 19.25 6.76794 19.25 7C19.25 7.23206 19.1578 7.45462 18.9937 7.61872C18.8296 7.78281 18.6071 7.875 18.375 7.875Z" fill="#2F323A"/>
</svg>
