<svg viewBox="0 0 28 28" fill="none" xmlns="http://www.w3.org/2000/svg">
<path d="M13.125 6.125V11.375C13.125 11.8391 12.9406 12.2842 12.6124 12.6124C12.2842 12.9406 11.8391 13.125 11.375 13.125H6.125C5.66087 13.125 5.21575 12.9406 4.88756 12.6124C4.55937 12.2842 4.375 11.8391 4.375 11.375V6.125C4.375 5.66087 4.55937 5.21575 4.88756 4.88756C5.21575 4.55937 5.66087 4.375 6.125 4.375H11.375C11.8391 4.375 12.2842 4.55937 12.6124 4.88756C12.9406 5.21575 13.125 5.66087 13.125 6.125ZM21.875 4.375H16.625C16.1609 4.375 15.7158 4.55937 15.3876 4.88756C15.0594 5.21575 14.875 5.66087 14.875 6.125V11.375C14.875 11.8391 15.0594 12.2842 15.3876 12.6124C15.7158 12.9406 16.1609 13.125 16.625 13.125H21.875C22.3391 13.125 22.7842 12.9406 23.1124 12.6124C23.4406 12.2842 23.625 11.8391 23.625 11.375V6.125C23.625 5.66087 23.4406 5.21575 23.1124 4.88756C22.7842 4.55937 22.3391 4.375 21.875 4.375ZM11.375 14.875H6.125C5.66087 14.875 5.21575 15.0594 4.88756 15.3876C4.55937 15.7158 4.375 16.1609 4.375 16.625V21.875C4.375 22.3391 4.55937 22.7842 4.88756 23.1124C5.21575 23.4406 5.66087 23.625 6.125 23.625H11.375C11.8391 23.625 12.2842 23.4406 12.6124 23.1124C12.9406 22.7842 13.125 22.3391 13.125 21.875V16.625C13.125 16.1609 12.9406 15.7158 12.6124 15.3876C12.2842 15.0594 11.8391 14.875 11.375 14.875ZM21.875 14.875H16.625C16.1609 14.875 15.7158 15.0594 15.3876 15.3876C15.0594 15.7158 14.875 16.1609 14.875 16.625V21.875C14.875 22.3391 15.0594 22.7842 15.3876 23.1124C15.7158 23.4406 16.1609 23.625 16.625 23.625H21.875C22.3391 23.625 22.7842 23.4406 23.1124 23.1124C23.4406 22.7842 23.625 22.3391 23.625 21.875V16.625C23.625 16.1609 23.4406 15.7158 23.1124 15.3876C22.7842 15.0594 22.3391 14.875 21.875 14.875Z" fill="currentColor"/>
</svg>
