<svg viewBox="0 0 28 28" fill="none" xmlns="http://www.w3.org/2000/svg">
<path d="M25.3752 3.5C25.3752 3.26794 25.283 3.04538 25.1189 2.88128C24.9548 2.71719 24.7323 2.625 24.5002 2.625C19.679 2.625 14.7319 8.06203 11.9844 11.6627C11.0032 11.3621 9.96516 11.2959 8.9537 11.4694C7.94223 11.6428 6.98554 12.051 6.16046 12.6612C5.33537 13.2715 4.6649 14.0667 4.20289 14.983C3.74088 15.8994 3.50021 16.9113 3.50022 17.9375C3.50022 21.315 1.36303 22.8298 1.26131 22.8998C1.1061 23.0047 0.988605 23.1565 0.926116 23.3331C0.863628 23.5096 0.859438 23.7016 0.914165 23.8807C0.968891 24.0598 1.07964 24.2166 1.23014 24.3281C1.38063 24.4396 1.56293 24.4998 1.75022 24.5H10.0627C11.0889 24.5 12.1009 24.2593 13.0172 23.7973C13.9335 23.3353 14.7288 22.6648 15.339 21.8398C15.9492 21.0147 16.3574 20.058 16.5309 19.0465C16.7043 18.0351 16.6381 16.997 16.3376 16.0158C19.9393 13.2683 25.3752 8.32125 25.3752 3.5ZM13.6087 12.4195C13.9834 11.9339 14.3513 11.4764 14.7122 11.0469C15.5957 11.6437 16.3565 12.4045 16.9533 13.288C16.5231 13.6482 16.0656 14.016 15.5807 14.3916C15.0708 13.6017 14.3985 12.9294 13.6087 12.4195ZM18.279 12.1264C17.6184 11.1943 16.8048 10.3807 15.8727 9.72016C19.3487 5.94344 21.9704 4.79828 23.518 4.48C23.2063 6.02875 22.0557 8.65047 18.279 12.1264Z" fill="currentColor"/>
</svg>
