<svg viewBox="0 0 28 28" fill="none" xmlns="http://www.w3.org/2000/svg">
<path d="M17.0953 10.5C16.7873 11.0318 16.625 11.6354 16.625 12.25C16.625 12.8646 16.7873 13.4682 17.0953 14H10.9047C11.2127 13.4682 11.375 12.8646 11.375 12.25C11.375 11.6354 11.2127 11.0318 10.9047 10.5H17.0953ZM7.875 10.5C7.52888 10.5 7.19054 10.6026 6.90275 10.7949C6.61497 10.9872 6.39066 11.2605 6.25821 11.5803C6.12576 11.9001 6.0911 12.2519 6.15863 12.5914C6.22615 12.9309 6.39282 13.2427 6.63756 13.4874C6.88231 13.7322 7.19413 13.8989 7.53359 13.9664C7.87306 14.0339 8.22493 13.9992 8.5447 13.8668C8.86447 13.7343 9.13778 13.51 9.33007 13.2222C9.52236 12.9345 9.625 12.5961 9.625 12.25C9.625 11.7859 9.44063 11.3408 9.11244 11.0126C8.78425 10.6844 8.33913 10.5 7.875 10.5ZM26.25 7V21C26.25 21.4641 26.0656 21.9092 25.7374 22.2374C25.4092 22.5656 24.9641 22.75 24.5 22.75H3.5C3.03587 22.75 2.59075 22.5656 2.26256 22.2374C1.93437 21.9092 1.75 21.4641 1.75 21V7C1.75 6.53587 1.93437 6.09075 2.26256 5.76256C2.59075 5.43437 3.03587 5.25 3.5 5.25H24.5C24.9641 5.25 25.4092 5.43437 25.7374 5.76256C26.0656 6.09075 26.25 6.53587 26.25 7ZM20.3438 21L18.6375 18.725C18.556 18.6163 18.4503 18.5281 18.3288 18.4674C18.2073 18.4066 18.0733 18.375 17.9375 18.375H10.0625C9.92666 18.375 9.79269 18.4066 9.67119 18.4674C9.54969 18.5281 9.444 18.6163 9.3625 18.725L7.65625 21H20.3438ZM23.625 12.25C23.625 11.3217 23.2563 10.4315 22.5999 9.77513C21.9435 9.11875 21.0533 8.75 20.125 8.75H7.875C6.94674 8.75 6.0565 9.11875 5.40013 9.77513C4.74375 10.4315 4.375 11.3217 4.375 12.25C4.375 13.1783 4.74375 14.0685 5.40013 14.7249C6.0565 15.3813 6.94674 15.75 7.875 15.75H20.125C21.0533 15.75 21.9435 15.3813 22.5999 14.7249C23.2563 14.0685 23.625 13.1783 23.625 12.25ZM20.125 10.5C19.7789 10.5 19.4405 10.6026 19.1528 10.7949C18.865 10.9872 18.6407 11.2605 18.5082 11.5803C18.3758 11.9001 18.3411 12.2519 18.4086 12.5914C18.4762 12.9309 18.6428 13.2427 18.8876 13.4874C19.1323 13.7322 19.4441 13.8989 19.7836 13.9664C20.1231 14.0339 20.4749 13.9992 20.7947 13.8668C21.1145 13.7343 21.3878 13.51 21.5801 13.2222C21.7724 12.9345 21.875 12.5961 21.875 12.25C21.875 11.7859 21.6906 11.3408 21.3624 11.0126C21.0342 10.6844 20.5891 10.5 20.125 10.5Z" fill="currentColor"/>
</svg>
