<svg viewBox="0 0 28 28" fill="none" xmlns="http://www.w3.org/2000/svg">
<path d="M18.375 24.5C18.375 24.7321 18.2828 24.9546 18.1187 25.1187C17.9546 25.2828 17.7321 25.375 17.5 25.375H10.5C10.2679 25.375 10.0454 25.2828 9.88128 25.1187C9.71719 24.9546 9.625 24.7321 9.625 24.5C9.625 24.2679 9.71719 24.0454 9.88128 23.8813C10.0454 23.7172 10.2679 23.625 10.5 23.625H17.5C17.7321 23.625 17.9546 23.7172 18.1187 23.8813C18.2828 24.0454 18.375 24.2679 18.375 24.5ZM25.375 7V19.25C25.375 19.9462 25.0984 20.6139 24.6062 21.1062C24.1139 21.5984 23.4462 21.875 22.75 21.875H5.25C4.55381 21.875 3.88613 21.5984 3.39384 21.1062C2.90156 20.6139 2.625 19.9462 2.625 19.25V7C2.625 6.30381 2.90156 5.63613 3.39384 5.14384C3.88613 4.65156 4.55381 4.375 5.25 4.375H22.75C23.4462 4.375 24.1139 4.65156 24.6062 5.14384C25.0984 5.63613 25.375 6.30381 25.375 7ZM17.9375 13.125C17.9375 12.9844 17.9035 12.8459 17.8386 12.7212C17.7737 12.5965 17.6797 12.4893 17.5645 12.4086L13.1895 9.34609C13.0584 9.25425 12.9047 9.20014 12.7449 9.18963C12.5852 9.17913 12.4257 9.21264 12.2837 9.28651C12.1417 9.36039 12.0226 9.4718 11.9396 9.60862C11.8565 9.74544 11.8125 9.90243 11.8125 10.0625V16.1875C11.8125 16.3476 11.8565 16.5046 11.9396 16.6414C12.0226 16.7782 12.1417 16.8896 12.2837 16.9635C12.4257 17.0374 12.5852 17.0709 12.7449 17.0604C12.9047 17.0499 13.0584 16.9957 13.1895 16.9039L17.5645 13.8414C17.6797 13.7607 17.7737 13.6535 17.8386 13.5288C17.9035 13.4041 17.9375 13.2656 17.9375 13.125Z" fill="currentColor"/>
</svg>
