<svg viewBox="0 0 28 28" fill="none" xmlns="http://www.w3.org/2000/svg">
<path d="M24.5 11.3749H23.5845C23.3647 8.98492 22.2598 6.7633 20.4867 5.14579C18.7136 3.52828 16.4001 2.63159 14 2.63159C11.5999 2.63159 9.28645 3.52828 7.51331 5.14579C5.74017 6.7633 4.63533 8.98492 4.41547 11.3749H3.5C3.26794 11.3749 3.04538 11.4671 2.88128 11.6312C2.71719 11.7953 2.625 12.0178 2.625 12.2499C2.62884 14.3308 3.20151 16.371 4.28106 18.15C5.36061 19.9289 6.90596 21.3789 8.75 22.343V22.7499C8.75 23.214 8.93437 23.6591 9.26256 23.9873C9.59075 24.3155 10.0359 24.4999 10.5 24.4999H17.5C17.9641 24.4999 18.4092 24.3155 18.7374 23.9873C19.0656 23.6591 19.25 23.214 19.25 22.7499V22.343C21.094 21.3789 22.6394 19.9289 23.7189 18.15C24.7985 16.371 25.3712 14.3308 25.375 12.2499C25.375 12.0178 25.2828 11.7953 25.1187 11.6312C24.9546 11.4671 24.7321 11.3749 24.5 11.3749ZM18.9744 6.15005C19.1749 6.31412 19.367 6.48729 19.5508 6.66958C17.2215 7.48897 15.2966 9.17296 14.175 11.3727H10.9484C11.4953 9.83974 12.5021 8.513 13.8314 7.57373C15.1606 6.63446 16.7474 6.12847 18.375 6.1249C18.5752 6.1249 18.7753 6.13474 18.9744 6.15005ZM16.2006 11.3749C17.2615 9.78337 18.8664 8.63343 20.7145 8.14068C21.3188 9.12358 21.6979 10.2281 21.8247 11.3749H16.2006ZM14 4.3749C14.7022 4.37536 15.4011 4.4699 16.0781 4.65599C14.4292 5.06502 12.9173 5.90149 11.6947 7.08108C10.4721 8.26066 9.58202 9.7417 9.11422 11.3749H6.17531C6.39236 9.45084 7.30988 7.67394 8.75296 6.38296C10.196 5.09198 12.0637 4.3772 14 4.3749Z" fill="currentColor"/>
</svg>
