<svg width="18" height="18" viewBox="0 0 18 18" fill="none" xmlns="http://www.w3.org/2000/svg">
<path d="M4.5 16.5H3C2.17157 16.5 1.5 15.8284 1.5 15V9.75C1.5 8.92157 2.17157 8.25 3 8.25H4.5V16.5Z" fill="white"/>
<path d="M8.25 1.5C8.84674 1.5 9.41886 1.73722 9.84082 2.15918C10.2628 2.58114 10.5 3.15326 10.5 3.75V6.75H14.7451C14.9625 6.74756 15.1781 6.79208 15.3765 6.8811C15.5747 6.97011 15.7509 7.10166 15.8936 7.26562C16.0362 7.42971 16.142 7.62296 16.2026 7.83179C16.2632 8.04052 16.2777 8.25997 16.2451 8.47485L15.2102 15.2249C15.156 15.5825 14.9739 15.909 14.6982 16.1433C14.4227 16.3774 14.0718 16.504 13.7102 16.5H5.25V8.25L8.25 1.5Z" fill="white"/>
</svg>
