<svg width="24" height="24" viewBox="0 0 24 24" fill="none" xmlns="http://www.w3.org/2000/svg">
<g clip-path="url(#clip0_6413_13758)">
<path d="M14.52 2C15.549 2 16.535 2.409 17.262 3.136L20.864 6.738C21.224 7.09801 21.5096 7.52542 21.7045 7.99581C21.8993 8.46619 21.9996 8.97035 21.9996 9.4795C21.9996 9.98865 21.8993 10.4928 21.7045 10.9632C21.5096 11.4336 21.224 11.861 20.864 12.221L18.221 14.864C17.5799 15.5045 16.7347 15.9004 15.8322 15.983C14.9297 16.0656 14.0267 15.8296 13.28 15.316L13.175 15.238L7.293 21.121C6.83776 21.5747 6.24884 21.8702 5.613 21.964L5.393 21.991L5.172 22H4C2.986 22 2.133 21.241 2.009 20.177L2 20V18.828C2 18.124 2.248 17.442 2.73 16.868L2.879 16.707L3.293 16.293C3.48049 16.1054 3.73481 16.0001 4 16H5V15C5.00003 14.7551 5.08996 14.5187 5.25272 14.3356C5.41547 14.1526 5.63975 14.0357 5.883 14.007L6 14H7V13C6.99998 12.7802 7.07238 12.5665 7.206 12.392L7.293 12.292L8.761 10.823L8.685 10.72C8.28573 10.139 8.05142 9.46059 8.007 8.757L8 8.521C8 7.492 8.409 6.506 9.136 5.779L11.779 3.136C12.5061 2.40915 13.4919 2.00057 14.52 2ZM15.015 7H14.995C14.7324 7 14.4723 7.05173 14.2296 7.15224C13.987 7.25275 13.7665 7.40007 13.5808 7.58579C13.3951 7.7715 13.2478 7.99198 13.1472 8.23463C13.0467 8.47728 12.995 8.73736 12.995 9C12.995 9.26264 13.0467 9.52272 13.1472 9.76537C13.2478 10.008 13.3951 10.2285 13.5808 10.4142C13.7665 10.5999 13.987 10.7472 14.2296 10.8478C14.4723 10.9483 14.7324 11 14.995 11H15.015C15.5454 11 16.0541 10.7893 16.4292 10.4142C16.8043 10.0391 17.015 9.53043 17.015 9C17.015 8.46957 16.8043 7.96086 16.4292 7.58579C16.0541 7.21071 15.5454 7 15.015 7Z" fill="black"/>
</g>
<defs>
<clipPath id="clip0_6413_13758">
<rect width="24" height="24" fill="white"/>
</clipPath>
</defs>
</svg>
