<svg viewBox="0 0 15 15" fill="none" xmlns="http://www.w3.org/2000/svg">
<path d="M7.5 11.8654L3.70721 14.1437C3.56598 14.2258 3.42444 14.2604 3.28259 14.2473C3.14072 14.2342 3.01229 14.1866 2.8973 14.1044C2.78233 14.0223 2.69359 13.9149 2.6311 13.7823C2.56859 13.6497 2.55859 13.5032 2.6011 13.3426L3.60787 9.05314L0.259423 6.16612C0.134439 6.05782 0.0547634 5.9324 0.0203976 5.78986C-0.0139682 5.64731 -0.00490945 5.50882 0.0475735 5.37438C0.100073 5.23992 0.175694 5.13005 0.274436 5.04477C0.373179 4.9595 0.508164 4.90379 0.679392 4.87766L5.09837 4.49297L6.81383 0.442559C6.87632 0.291932 6.97099 0.180511 7.09785 0.108297C7.22472 0.0360989 7.35877 0 7.5 0C7.64123 0 7.77528 0.0360989 7.90215 0.108297C8.02901 0.180511 8.12368 0.291932 8.18617 0.442559L9.90163 4.49297L14.3206 4.87766C14.4918 4.90379 14.6268 4.9595 14.7256 5.04477C14.8243 5.13005 14.8999 5.23992 14.9524 5.37438C15.0049 5.50882 15.014 5.64731 14.9796 5.78986C14.9452 5.9324 14.8656 6.05782 14.7406 6.16612L11.3921 9.05314L12.3989 13.3426C12.4414 13.5032 12.4314 13.6497 12.3689 13.7823C12.3064 13.9149 12.2177 14.0223 12.1027 14.1044C11.9877 14.1866 11.8593 14.2342 11.7174 14.2473C11.5756 14.2604 11.434 14.2258 11.2928 14.1437L7.5 11.8654Z" fill="#DBDCE1"/>
</svg>
