<svg viewBox="0 0 34 32" fill="none" xmlns="http://www.w3.org/2000/svg">
<path d="M16.6667 26.3676L8.23825 31.4303C7.9244 31.6129 7.60986 31.6897 7.29464 31.6607C6.97938 31.6316 6.69398 31.5258 6.43845 31.3432C6.18295 31.1606 5.98576 30.922 5.84689 30.6274C5.70798 30.3328 5.68576 30.007 5.78022 29.6501L8.01748 20.1181L0.576495 13.7025C0.298752 13.4618 0.121696 13.1831 0.045328 12.8664C-0.0310404 12.5496 -0.0109099 12.2418 0.105719 11.9431C0.222384 11.6443 0.39043 11.4001 0.609859 11.2106C0.829287 11.0211 1.12925 10.8973 1.50976 10.8392L11.3297 9.98438L15.1418 0.983465C15.2807 0.648739 15.4911 0.401135 15.773 0.24066C16.0549 0.0802198 16.3528 0 16.6667 0C16.9805 0 17.2784 0.0802198 17.5603 0.24066C17.8422 0.401135 18.0526 0.648739 18.1915 0.983465L22.0036 9.98438L31.8236 10.8392C32.2041 10.8973 32.504 11.0211 32.7235 11.2106C32.9429 11.4001 33.111 11.6443 33.2276 11.9431C33.3442 12.2418 33.3644 12.5496 33.288 12.8664C33.2116 13.1831 33.0346 13.4618 32.7568 13.7025L25.3158 20.1181L27.5531 29.6501C27.6476 30.007 27.6254 30.3328 27.4864 30.6274C27.3476 30.922 27.1504 31.1606 26.8949 31.3432C26.6394 31.5258 26.354 31.6316 26.0387 31.6607C25.7235 31.6897 25.4089 31.6129 25.0951 31.4303L16.6667 26.3676Z" fill="#FFC83C"/>
</svg>
